    <svg 
        viewBox="0 0 451 499" 
        fill="none" 
        xmlns="http://www.w3.org/2000/svg"
        >
        <path 
            d="M378.267 498.3C406.206 498.3 420.825 498.266 428.995 497.917C433.082 497.742 435.526 497.489 437.206 497.13C438.655 496.82 439.538 496.43 440.428 495.927L440.812 495.703C443.142 494.277 446.148 491.272 447.572 488.941V488.94C447.891 488.414 448.159 487.934 448.397 487.045C448.641 486.137 448.856 484.796 449.043 482.553C449.416 478.067 449.666 470.072 449.833 454.944C450.166 424.698 450.167 366.002 450.167 250V15.3516L447.328 11.0928C445.614 8.71975 442.586 5.43405 440.643 4.00684C439.738 3.36083 438.996 2.88863 437.525 2.51562C436.024 2.13477 433.761 1.85754 429.823 1.64941C421.954 1.23353 407.536 1.10044 379.463 0.900391L322.018 0.501953L317.614 3.47949H317.615C315.131 5.17913 311.712 8.60105 310.149 10.9443L310.147 10.9473L307.167 15.3535V135.976L306.399 135.489L302.401 132.957C300.262 131.62 285.991 122.417 270.926 112.552C254.19 101.617 243.801 94.958 237.081 91.0322C233.72 89.069 231.292 87.7977 229.455 87.0186C227.616 86.2386 226.404 85.9668 225.467 85.9668C224.542 85.9668 223.948 85.9512 222.884 86.3291C221.784 86.7195 220.188 87.5306 217.321 89.2305C211.598 92.6247 200.941 99.4843 179.336 113.354L145.604 135.087L144.833 135.584V76.2666C144.833 47.3918 144.833 32.8411 144.467 24.7725C144.284 20.7384 144.01 18.3542 143.608 16.623C143.211 14.9096 142.684 13.821 141.956 12.3643C141.11 10.7366 139.866 8.93373 138.519 7.33984C137.167 5.74107 135.738 4.38415 134.533 3.62305L134.526 3.61816L134.52 3.61426C133.391 2.85114 132.598 2.31608 131.155 1.9082C129.688 1.49333 127.536 1.207 123.708 1.01562C116.057 0.63312 101.875 0.633789 73.4668 0.633789C45.3254 0.633789 31.1422 0.667239 23.3252 1.06641C19.4167 1.266 17.1318 1.55528 15.502 1.96777C13.8886 2.37613 12.9019 2.90745 11.5742 3.6377L11.5703 3.64062C8.20206 5.45436 5.34239 8.43861 3.51953 12.3447L3.51465 12.3555L3.50977 12.3652L0.5 18.124V482.144L3.50977 487.901L3.51172 487.905C4.9301 490.674 5.84441 492.604 7.44434 494.04C9.02325 495.457 11.3216 496.428 15.5908 497.072C24.1591 498.365 40.3033 498.3 73.4668 498.3H131.447L135.854 495.319L135.858 495.315C138.217 493.765 139.865 492.735 141.099 490.974C142.328 489.218 143.174 486.687 143.737 482.089C144.866 472.878 144.833 455.69 144.833 420.667C144.833 392.604 144.9 376.827 145.2 367.983C145.35 363.567 145.559 360.851 145.854 359.191C146 358.364 146.175 357.762 146.395 357.333C146.618 356.897 146.906 356.61 147.281 356.471V356.469C147.285 356.467 147.289 356.467 147.292 356.466C147.294 356.465 147.297 356.464 147.299 356.463V356.464C147.4 356.426 147.525 356.403 147.629 356.389C147.755 356.371 147.915 356.354 148.102 356.338C148.476 356.306 148.986 356.275 149.617 356.246C150.882 356.187 152.655 356.134 154.86 356.084C159.273 355.984 165.432 355.9 172.754 355.833C187.398 355.7 206.699 355.634 226 355.634C245.301 355.634 264.602 355.7 279.246 355.833C286.568 355.9 292.727 355.984 297.14 356.084C299.345 356.134 301.118 356.187 302.383 356.246C303.014 356.275 303.524 356.306 303.898 356.338C304.085 356.354 304.245 356.371 304.371 356.389C304.474 356.403 304.599 356.427 304.7 356.464L304.701 356.463C304.703 356.464 304.705 356.465 304.707 356.466C304.711 356.467 304.715 356.467 304.719 356.469L304.718 356.471C305.094 356.61 305.383 356.896 305.606 357.334C305.826 357.764 306 358.368 306.146 359.198C306.441 360.864 306.65 363.592 306.8 368.033C307.1 376.927 307.167 392.804 307.167 421.066C307.167 452.006 307.2 467.859 307.566 476.596C307.75 480.966 308.015 483.526 308.394 485.293C308.766 487.033 309.248 488.011 309.901 489.22C311.291 491.66 312.141 493.338 313.654 494.59C315.149 495.826 317.342 496.676 321.484 497.238C329.791 498.366 345.573 498.3 378.267 498.3ZM225.866 285.967C189.139 285.967 170.327 285.967 160.366 285.633C155.394 285.466 152.588 285.216 150.852 284.83C149.976 284.635 149.351 284.401 148.85 284.114C148.346 283.826 147.99 283.497 147.646 283.153C146.984 282.491 146.448 281.84 146.046 280.755C145.652 279.694 145.394 278.243 145.218 275.989C144.866 271.481 144.833 263.588 144.833 248.8V217.192L145.064 217.045L156.131 209.979C162.139 205.974 179.072 195.04 193.727 185.448L193.729 185.447C208.12 176.119 215.538 171.341 219.755 168.965C221.861 167.778 223.208 167.167 224.249 166.896C225.323 166.616 226.054 166.702 226.882 166.84L226.891 166.842L226.898 166.843C227.035 166.87 227.199 166.932 227.367 167.003C227.544 167.078 227.758 167.178 228.004 167.3C228.496 167.544 229.134 167.886 229.897 168.312C231.425 169.163 233.473 170.363 235.892 171.822C240.729 174.742 247.065 178.711 253.734 183.046L253.735 183.045C290.274 206.382 290.934 206.91 299.335 212.244L299.344 212.251L306.944 217.317L307.167 217.466V248.134C307.167 262.455 307.133 270.115 306.765 274.607C306.58 276.857 306.309 278.349 305.9 279.501C305.487 280.667 304.94 281.458 304.257 282.312L301.597 285.771L301.446 285.967H225.866Z" 
            fill="white"
            stroke="currentColor"
        />
    </svg>